<mxfile host="app.diagrams.net" modified="2023-12-16T18:51:28.099Z" agent="Mozilla/5.0 (Windows NT 10.0; Win64; x64) AppleWebKit/537.36 (KHTML, like Gecko) Chrome/115.0.0.0 Iron Safari/537.36" etag="lHUt7g-GzDm_GPX-Q8P0" version="22.1.11" type="github">
  <diagram id="R2lEEEUBdFMjLlhIrx00" name="Page-1">
    <mxGraphModel dx="1114" dy="616" grid="1" gridSize="10" guides="1" tooltips="1" connect="1" arrows="1" fold="1" page="1" pageScale="1" pageWidth="850" pageHeight="1100" math="0" shadow="0" extFonts="Permanent Marker^https://fonts.googleapis.com/css?family=Permanent+Marker">
      <root>
        <mxCell id="0" />
        <mxCell id="1" parent="0" />
        <mxCell id="gFeTC7dQqnttg-DzdxJD-71" value="ΔΝΣΗ" style="rounded=0;whiteSpace=wrap;html=1;labelBackgroundColor=none;fillColor=#FAE5C7;strokeColor=#0F8B8D;fontColor=#143642;" parent="1" vertex="1">
          <mxGeometry x="130" y="60" width="120" height="60" as="geometry" />
        </mxCell>
        <mxCell id="gFeTC7dQqnttg-DzdxJD-72" value="ΔΙΑΓΩΝΙΣΜΟΣ" style="rounded=0;whiteSpace=wrap;html=1;labelBackgroundColor=none;fillColor=#FAE5C7;strokeColor=#0F8B8D;fontColor=#143642;" parent="1" vertex="1">
          <mxGeometry x="660" y="60" width="120" height="60" as="geometry" />
        </mxCell>
        <mxCell id="gFeTC7dQqnttg-DzdxJD-73" value="ΠΡΟΣΦΟΡΑ" style="rounded=0;whiteSpace=wrap;html=1;labelBackgroundColor=none;fillColor=#FAE5C7;strokeColor=#0F8B8D;fontColor=#143642;" parent="1" vertex="1">
          <mxGeometry x="325" y="325" width="120" height="60" as="geometry" />
        </mxCell>
        <mxCell id="gFeTC7dQqnttg-DzdxJD-74" value="ΠΡΟΜΗΘΕΥΤΗΣ" style="rounded=0;whiteSpace=wrap;html=1;labelBackgroundColor=none;fillColor=#FAE5C7;strokeColor=#0F8B8D;fontColor=#143642;" parent="1" vertex="1">
          <mxGeometry x="660" y="325" width="120" height="60" as="geometry" />
        </mxCell>
        <mxCell id="gFeTC7dQqnttg-DzdxJD-75" value="ΤΜΗΜΑ" style="rounded=0;whiteSpace=wrap;html=1;labelBackgroundColor=none;fillColor=#FAE5C7;strokeColor=#0F8B8D;fontColor=#143642;" parent="1" vertex="1">
          <mxGeometry x="130" y="205" width="120" height="60" as="geometry" />
        </mxCell>
        <mxCell id="gFeTC7dQqnttg-DzdxJD-76" value="ΥΛΙΚΟ" style="rounded=0;whiteSpace=wrap;html=1;labelBackgroundColor=none;fillColor=#FAE5C7;strokeColor=#0F8B8D;fontColor=#143642;" parent="1" vertex="1">
          <mxGeometry x="510" y="460" width="120" height="60" as="geometry" />
        </mxCell>
        <mxCell id="gFeTC7dQqnttg-DzdxJD-77" value="ΔΙΑΚΗΡΥΤΤΕΙ" style="rhombus;whiteSpace=wrap;html=1;rounded=0;labelBackgroundColor=none;fillColor=#FAE5C7;strokeColor=#0F8B8D;fontColor=#143642;" parent="1" vertex="1">
          <mxGeometry x="335" y="45" width="90" height="90" as="geometry" />
        </mxCell>
        <mxCell id="gFeTC7dQqnttg-DzdxJD-78" value="" style="shape=link;html=1;rounded=0;exitX=1;exitY=0.5;exitDx=0;exitDy=0;entryX=0;entryY=0.5;entryDx=0;entryDy=0;labelBackgroundColor=none;strokeColor=#A8201A;fontColor=default;" parent="1" source="gFeTC7dQqnttg-DzdxJD-77" target="gFeTC7dQqnttg-DzdxJD-72" edge="1">
          <mxGeometry width="100" relative="1" as="geometry">
            <mxPoint x="370" y="320" as="sourcePoint" />
            <mxPoint x="470" y="320" as="targetPoint" />
            <Array as="points" />
          </mxGeometry>
        </mxCell>
        <mxCell id="gFeTC7dQqnttg-DzdxJD-79" value="" style="endArrow=none;html=1;rounded=0;exitX=1;exitY=0.5;exitDx=0;exitDy=0;entryX=0;entryY=0.5;entryDx=0;entryDy=0;labelBackgroundColor=none;strokeColor=#A8201A;fontColor=default;" parent="1" source="gFeTC7dQqnttg-DzdxJD-71" target="gFeTC7dQqnttg-DzdxJD-77" edge="1">
          <mxGeometry width="50" height="50" relative="1" as="geometry">
            <mxPoint x="400" y="340" as="sourcePoint" />
            <mxPoint x="450" y="290" as="targetPoint" />
            <Array as="points">
              <mxPoint x="300" y="90" />
            </Array>
          </mxGeometry>
        </mxCell>
        <mxCell id="gFeTC7dQqnttg-DzdxJD-80" value="Ν" style="text;strokeColor=none;align=center;fillColor=none;html=1;verticalAlign=middle;whiteSpace=wrap;rounded=0;labelBackgroundColor=none;fontColor=#143642;" parent="1" vertex="1">
          <mxGeometry x="425" y="60" width="20" height="30" as="geometry" />
        </mxCell>
        <mxCell id="gFeTC7dQqnttg-DzdxJD-81" value="1" style="text;strokeColor=none;align=center;fillColor=none;html=1;verticalAlign=middle;whiteSpace=wrap;rounded=0;labelBackgroundColor=none;fontColor=#143642;" parent="1" vertex="1">
          <mxGeometry x="170" y="260" width="20" height="30" as="geometry" />
        </mxCell>
        <mxCell id="gFeTC7dQqnttg-DzdxJD-82" value="ΧΕΙΡΙΖΕΤΑΙ" style="rhombus;whiteSpace=wrap;html=1;rounded=0;labelBackgroundColor=none;fillColor=#FAE5C7;strokeColor=#0F8B8D;fontColor=#143642;" parent="1" vertex="1">
          <mxGeometry x="335" y="190" width="90" height="90" as="geometry" />
        </mxCell>
        <mxCell id="gFeTC7dQqnttg-DzdxJD-83" value="" style="shape=link;html=1;rounded=0;entryX=0;entryY=0.5;entryDx=0;entryDy=0;exitX=1;exitY=0.5;exitDx=0;exitDy=0;labelBackgroundColor=none;strokeColor=#A8201A;fontColor=default;" parent="1" source="gFeTC7dQqnttg-DzdxJD-82" target="gFeTC7dQqnttg-DzdxJD-72" edge="1">
          <mxGeometry width="100" relative="1" as="geometry">
            <mxPoint x="425" y="210" as="sourcePoint" />
            <mxPoint x="470" y="320" as="targetPoint" />
          </mxGeometry>
        </mxCell>
        <mxCell id="gFeTC7dQqnttg-DzdxJD-84" value="" style="endArrow=none;html=1;rounded=0;exitX=1;exitY=0.5;exitDx=0;exitDy=0;entryX=0;entryY=0.5;entryDx=0;entryDy=0;labelBackgroundColor=none;strokeColor=#A8201A;fontColor=default;" parent="1" source="gFeTC7dQqnttg-DzdxJD-75" target="gFeTC7dQqnttg-DzdxJD-82" edge="1">
          <mxGeometry width="50" height="50" relative="1" as="geometry">
            <mxPoint x="400" y="340" as="sourcePoint" />
            <mxPoint x="450" y="290" as="targetPoint" />
          </mxGeometry>
        </mxCell>
        <mxCell id="gFeTC7dQqnttg-DzdxJD-85" value="1" style="text;strokeColor=none;align=center;fillColor=none;html=1;verticalAlign=middle;whiteSpace=wrap;rounded=0;labelBackgroundColor=none;fontColor=#143642;" parent="1" vertex="1">
          <mxGeometry x="325" y="200" width="20" height="30" as="geometry" />
        </mxCell>
        <mxCell id="gFeTC7dQqnttg-DzdxJD-86" value="Ν" style="text;strokeColor=none;align=center;fillColor=none;html=1;verticalAlign=middle;whiteSpace=wrap;rounded=0;labelBackgroundColor=none;fontColor=#143642;" parent="1" vertex="1">
          <mxGeometry x="415" y="200" width="20" height="30" as="geometry" />
        </mxCell>
        <mxCell id="gFeTC7dQqnttg-DzdxJD-87" value="ΑΦΟΡΑ" style="rhombus;whiteSpace=wrap;html=1;rounded=0;labelBackgroundColor=none;fillColor=#FAE5C7;strokeColor=#0F8B8D;fontColor=#143642;" parent="1" vertex="1">
          <mxGeometry x="530" y="195" width="80" height="80" as="geometry" />
        </mxCell>
        <mxCell id="gFeTC7dQqnttg-DzdxJD-88" value="" style="shape=link;html=1;rounded=0;entryX=1;entryY=0.5;entryDx=0;entryDy=0;exitX=0;exitY=1;exitDx=0;exitDy=0;labelBackgroundColor=none;strokeColor=#A8201A;fontColor=default;" parent="1" source="gFeTC7dQqnttg-DzdxJD-87" target="gFeTC7dQqnttg-DzdxJD-73" edge="1">
          <mxGeometry width="100" relative="1" as="geometry">
            <mxPoint x="370" y="320" as="sourcePoint" />
            <mxPoint x="470" y="320" as="targetPoint" />
            <Array as="points" />
          </mxGeometry>
        </mxCell>
        <mxCell id="gFeTC7dQqnttg-DzdxJD-89" value="" style="endArrow=none;html=1;rounded=0;exitX=0;exitY=1;exitDx=0;exitDy=0;labelBackgroundColor=none;strokeColor=#A8201A;fontColor=default;" parent="1" source="gFeTC7dQqnttg-DzdxJD-72" target="gFeTC7dQqnttg-DzdxJD-87" edge="1">
          <mxGeometry width="50" height="50" relative="1" as="geometry">
            <mxPoint x="400" y="340" as="sourcePoint" />
            <mxPoint x="560" y="160" as="targetPoint" />
            <Array as="points" />
          </mxGeometry>
        </mxCell>
        <mxCell id="gFeTC7dQqnttg-DzdxJD-90" value="Ν" style="text;strokeColor=none;align=center;fillColor=none;html=1;verticalAlign=middle;whiteSpace=wrap;rounded=0;labelBackgroundColor=none;fontColor=#143642;" parent="1" vertex="1">
          <mxGeometry x="520" y="235" width="20" height="30" as="geometry" />
        </mxCell>
        <mxCell id="gFeTC7dQqnttg-DzdxJD-91" value="1" style="text;strokeColor=none;align=center;fillColor=none;html=1;verticalAlign=middle;whiteSpace=wrap;rounded=0;labelBackgroundColor=none;fontColor=#143642;" parent="1" vertex="1">
          <mxGeometry x="580" y="175" width="20" height="30" as="geometry" />
        </mxCell>
        <mxCell id="gFeTC7dQqnttg-DzdxJD-92" value="ΑΞΙΟΛΟΓΕΙ" style="rhombus;whiteSpace=wrap;html=1;rounded=0;labelBackgroundColor=none;fillColor=#FAE5C7;strokeColor=#0F8B8D;fontColor=#143642;" parent="1" vertex="1">
          <mxGeometry x="150" y="330" width="80" height="80" as="geometry" />
        </mxCell>
        <mxCell id="gFeTC7dQqnttg-DzdxJD-93" value="" style="shape=link;html=1;rounded=0;exitX=1;exitY=0.5;exitDx=0;exitDy=0;entryX=0;entryY=0.5;entryDx=0;entryDy=0;labelBackgroundColor=none;strokeColor=#A8201A;fontColor=default;" parent="1" source="gFeTC7dQqnttg-DzdxJD-92" target="gFeTC7dQqnttg-DzdxJD-73" edge="1">
          <mxGeometry width="100" relative="1" as="geometry">
            <mxPoint x="370" y="320" as="sourcePoint" />
            <mxPoint x="470" y="320" as="targetPoint" />
            <Array as="points" />
          </mxGeometry>
        </mxCell>
        <mxCell id="gFeTC7dQqnttg-DzdxJD-94" value="" style="shape=link;html=1;rounded=0;exitX=0.5;exitY=0;exitDx=0;exitDy=0;entryX=0.5;entryY=1;entryDx=0;entryDy=0;labelBackgroundColor=none;strokeColor=#A8201A;fontColor=default;" parent="1" source="gFeTC7dQqnttg-DzdxJD-92" target="gFeTC7dQqnttg-DzdxJD-75" edge="1">
          <mxGeometry width="100" relative="1" as="geometry">
            <mxPoint x="370" y="320" as="sourcePoint" />
            <mxPoint x="190" y="270" as="targetPoint" />
          </mxGeometry>
        </mxCell>
        <mxCell id="gFeTC7dQqnttg-DzdxJD-95" value="1" style="text;strokeColor=none;align=center;fillColor=none;html=1;verticalAlign=middle;whiteSpace=wrap;rounded=0;labelBackgroundColor=none;fontColor=#143642;" parent="1" vertex="1">
          <mxGeometry x="190" y="310" width="20" height="30" as="geometry" />
        </mxCell>
        <mxCell id="gFeTC7dQqnttg-DzdxJD-96" value="Ν" style="text;strokeColor=none;align=center;fillColor=none;html=1;verticalAlign=middle;whiteSpace=wrap;rounded=0;labelBackgroundColor=none;fontColor=#143642;" parent="1" vertex="1">
          <mxGeometry x="230" y="340" width="20" height="30" as="geometry" />
        </mxCell>
        <mxCell id="gFeTC7dQqnttg-DzdxJD-97" value="ΠΕΡΙΕΧΕΙ" style="rhombus;whiteSpace=wrap;html=1;rounded=0;labelBackgroundColor=none;fillColor=#FAE5C7;strokeColor=#0F8B8D;fontColor=#143642;" parent="1" vertex="1">
          <mxGeometry x="345" y="450" width="80" height="80" as="geometry" />
        </mxCell>
        <mxCell id="gFeTC7dQqnttg-DzdxJD-98" value="" style="endArrow=none;html=1;rounded=0;exitX=0.5;exitY=0;exitDx=0;exitDy=0;entryX=0.5;entryY=1;entryDx=0;entryDy=0;labelBackgroundColor=none;strokeColor=#A8201A;fontColor=default;" parent="1" source="gFeTC7dQqnttg-DzdxJD-97" target="gFeTC7dQqnttg-DzdxJD-73" edge="1">
          <mxGeometry width="50" height="50" relative="1" as="geometry">
            <mxPoint x="400" y="340" as="sourcePoint" />
            <mxPoint x="450" y="290" as="targetPoint" />
          </mxGeometry>
        </mxCell>
        <mxCell id="gFeTC7dQqnttg-DzdxJD-99" value="" style="shape=link;html=1;rounded=0;entryX=0;entryY=0.5;entryDx=0;entryDy=0;exitX=1;exitY=0.5;exitDx=0;exitDy=0;labelBackgroundColor=none;strokeColor=#A8201A;fontColor=default;" parent="1" source="gFeTC7dQqnttg-DzdxJD-97" target="gFeTC7dQqnttg-DzdxJD-76" edge="1">
          <mxGeometry width="100" relative="1" as="geometry">
            <mxPoint x="370" y="320" as="sourcePoint" />
            <mxPoint x="470" y="320" as="targetPoint" />
            <Array as="points" />
          </mxGeometry>
        </mxCell>
        <mxCell id="gFeTC7dQqnttg-DzdxJD-100" value="ΥΠΟΒΑΛΛΕΙ" style="rhombus;whiteSpace=wrap;html=1;rounded=0;labelBackgroundColor=none;fillColor=#FAE5C7;strokeColor=#0F8B8D;fontColor=#143642;" parent="1" vertex="1">
          <mxGeometry x="530" y="315" width="80" height="80" as="geometry" />
        </mxCell>
        <mxCell id="gFeTC7dQqnttg-DzdxJD-101" value="" style="endArrow=none;html=1;rounded=0;entryX=0;entryY=0.5;entryDx=0;entryDy=0;exitX=1;exitY=0.5;exitDx=0;exitDy=0;labelBackgroundColor=none;strokeColor=#A8201A;fontColor=default;" parent="1" source="gFeTC7dQqnttg-DzdxJD-100" target="gFeTC7dQqnttg-DzdxJD-74" edge="1">
          <mxGeometry width="50" height="50" relative="1" as="geometry">
            <mxPoint x="400" y="340" as="sourcePoint" />
            <mxPoint x="450" y="290" as="targetPoint" />
          </mxGeometry>
        </mxCell>
        <mxCell id="gFeTC7dQqnttg-DzdxJD-102" value="" style="shape=link;html=1;rounded=0;entryX=0;entryY=0.5;entryDx=0;entryDy=0;exitX=1;exitY=0.5;exitDx=0;exitDy=0;labelBackgroundColor=none;strokeColor=#A8201A;fontColor=default;" parent="1" source="gFeTC7dQqnttg-DzdxJD-73" target="gFeTC7dQqnttg-DzdxJD-100" edge="1">
          <mxGeometry width="100" relative="1" as="geometry">
            <mxPoint x="370" y="320" as="sourcePoint" />
            <mxPoint x="470" y="320" as="targetPoint" />
          </mxGeometry>
        </mxCell>
        <mxCell id="gFeTC7dQqnttg-DzdxJD-103" value="1" style="text;strokeColor=none;align=center;fillColor=none;html=1;verticalAlign=middle;whiteSpace=wrap;rounded=0;labelBackgroundColor=none;fontColor=#143642;" parent="1" vertex="1">
          <mxGeometry x="315" y="60" width="20" height="30" as="geometry" />
        </mxCell>
        <mxCell id="gFeTC7dQqnttg-DzdxJD-104" value="Ν" style="text;strokeColor=none;align=center;fillColor=none;html=1;verticalAlign=middle;whiteSpace=wrap;rounded=0;labelBackgroundColor=none;fontColor=#143642;" parent="1" vertex="1">
          <mxGeometry x="510" y="325" width="20" height="30" as="geometry" />
        </mxCell>
        <mxCell id="gFeTC7dQqnttg-DzdxJD-105" value="1" style="text;strokeColor=none;align=center;fillColor=none;html=1;verticalAlign=middle;whiteSpace=wrap;rounded=0;labelBackgroundColor=none;fontColor=#143642;" parent="1" vertex="1">
          <mxGeometry x="610" y="325" width="20" height="30" as="geometry" />
        </mxCell>
        <mxCell id="gFeTC7dQqnttg-DzdxJD-106" value="Ν" style="text;strokeColor=none;align=center;fillColor=none;html=1;verticalAlign=middle;whiteSpace=wrap;rounded=0;labelBackgroundColor=none;fontColor=#143642;" parent="1" vertex="1">
          <mxGeometry x="425" y="460" width="20" height="30" as="geometry" />
        </mxCell>
        <mxCell id="gFeTC7dQqnttg-DzdxJD-107" value="Ν" style="text;strokeColor=none;align=center;fillColor=none;html=1;verticalAlign=middle;whiteSpace=wrap;rounded=0;labelBackgroundColor=none;fontColor=#143642;" parent="1" vertex="1">
          <mxGeometry x="390" y="430" width="20" height="30" as="geometry" />
        </mxCell>
      </root>
    </mxGraphModel>
  </diagram>
</mxfile>
